# File created by Blade
# Date/Time:  Thu Jan 15 17:55:17 2015
#---------------------------------------------------------
:version 1.10
:name HOM
:units
  mass 1.0
  length 1.000000
  angle deg
:documentation
     Acclaim Skeleton File
:root
   axis xyz
   order TX TY TZ RX RY RZ
   position 0.000000 0.000000 0.000000
   orientation 0 0 0
:bonedata
   begin
      id 1
      name Spine_dum
      direction 0.000000 1.000000 0.000000
      length 5.015652
      axis 0.0 0.0 0.0 xyz
   end
   begin
      id 2
      name LeftUpLeg_dum
      direction 1.000000 0.000000 0.000000
      length 4.275145
      axis 0.0 0.0 0.0 xyz
   end
   begin
      id 3
      name RightUpLeg_dum
      direction -1.000000 0.000000 0.000000
      length 4.275145
      axis 0.0 0.0 0.0 xyz
   end
   begin
      id 4
      name Spine
      direction 0.000000 1.000000 0.000000
      length 0.000000
      axis 0.0 0.0 0.0 xyz
      dof rx ry rz
   end
   begin
      id 5
      name Spine_dum1
      direction 0.000000 1.000000 0.000000
      length 15.980521
      axis 0.0 0.0 0.0 xyz
   end
   begin
      id 6
      name Spine_dum2
      direction 0.000000 1.000000 0.000000
      length 12.162712
      axis 0.0 0.0 0.0 xyz
   end
   begin
      id 7
      name Spine_dum3
      direction 0.000000 1.000000 0.000000
      length 12.162712
      axis 0.0 0.0 0.0 xyz
   end
   begin
      id 8
      name Head
      direction 0.000000 1.000000 0.000000
      length 4.527550
      axis 0.0 0.0 0.0 xyz
      dof rx ry rz
   end
   begin
      id 9
      name LeftShoulder
      direction 1.000000 0.000000 0.000000
      length 7.205867
      axis 0.0 0.0 -90.0 xyz
      dof rx ry rz
   end
   begin
      id 10
      name LeftArm
      direction 1.000000 0.000000 0.000000
      length 10.786708
      axis 0.0 0.0 -90.0 xyz
      dof rx ry rz
   end
   begin
      id 11
      name LeftForeArm
      direction 1.000000 0.000000 0.000000
      length 7.946034
      axis 0.0 0.0 -90.0 xyz
      dof rz ry rx
   end
   begin
      id 12
      name LeftHand
      direction 0.000000 0.000000 0.000000
      length 0.000000
      axis 0.0 0.0 -90.0 xyz
      dof rx ry rz
   end
   begin
      id 13
      name LeftHand_dum1
      direction 0.000000 0.000000 0.000000
      length 0.000000
      axis 0.0 0.0 -90.0 xyz
   end
   begin
      id 14
      name LeftHand_dum2
      direction 1.000000 0.000000 0.000000
      length 3.937000
      axis 0.0 0.0 -90.0 xyz
   end
   begin
      id 15
      name LeftHandThumb1
      direction 0.000000 0.000000 1.000000
      length 3.937000
      axis 0.0 0.0 -90.0 xyz
      dof rx ry rz
   end
   begin
      id 16
      name RightShoulder
      direction -1.000000 0.000000 0.000000
      length 7.205867
      axis 0.0 0.0 90.0 xyz
      dof rx ry rz
   end
   begin
      id 17
      name RightArm
      direction -1.000000 0.000000 0.000000
      length 10.786708
      axis 0.0 0.0 90.0 xyz
      dof rx ry rz
   end
   begin
      id 18
      name RightForeArm
      direction -1.000000 0.000000 0.000000
      length 7.946034
      axis 0.0 0.0 90.0 xyz
      dof rz ry rx
   end
   begin
      id 19
      name RightHand
      direction 0.000000 0.000000 0.000000
      length 0.000000
      axis 0.0 0.0 90.0 xyz
      dof rx ry rz
   end
   begin
      id 20
      name RightHand_dum1
      direction 0.000000 0.000000 0.000000
      length 0.000000
      axis 0.0 0.0 90.0 xyz
   end
   begin
      id 21
      name RightHand_dum2
      direction -1.000000 0.000000 0.000000
      length 3.937000
      axis 0.0 0.0 90.0 xyz
   end
   begin
      id 22
      name RightHandThumb1
      direction 0.000000 0.000000 1.000000
      length 3.937000
      axis 0.0 0.0 90.0 xyz
      dof rx ry rz
   end
   begin
      id 23
      name LeftUpLeg
      direction 0.000000 -1.000000 0.000000
      length 17.046659
      axis 0.0 0.0 0.0 xyz
      dof rx ry rz
   end
   begin
      id 24
      name LeftLeg
      direction 0.000000 -1.000000 0.000000
      length 17.458438
      axis 0.0 0.0 0.0 xyz
      dof rx ry rz
   end
   begin
      id 25
      name LeftFoot
      direction 0.000000 -0.258819 0.965926
      length 5.099406
      axis 15.0 0.0 0.0 xyz
      dof rx ry rz
   end
   begin
      id 26
      name LeftToeBase
      direction 0.000000 0.000000 1.000000
      length 2.952750
      axis 0.0 0.0 0.0 xyz
      dof rx ry rz
   end
   begin
      id 27
      name RightUpLeg
      direction 0.000000 -1.000000 0.000000
      length 17.046659
      axis 0.0 0.0 0.0 xyz
      dof rx ry rz
   end
   begin
      id 28
      name RightLeg
      direction 0.000000 -1.000000 0.000000
      length 17.458438
      axis 0.0 0.0 0.0 xyz
      dof rx ry rz
   end
   begin
      id 29
      name RightFoot
      direction 0.000000 -0.258819 0.965926
      length 5.099406
      axis 15.0 0.0 0.0 xyz
      dof rx ry rz
   end
   begin
      id 30
      name RightToeBase
      direction 0.000000 0.000000 1.000000
      length 2.952750
      axis 0.0 0.0 0.0 xyz
      dof rx ry rz
   end
:hierarchy
   begin
      root Spine_dum LeftUpLeg_dum RightUpLeg_dum
      Spine_dum Spine
      LeftUpLeg_dum LeftUpLeg
      RightUpLeg_dum RightUpLeg
      Spine Spine_dum1 Spine_dum2 Spine_dum3
      Spine_dum1 Head
      Spine_dum2 LeftShoulder
      Spine_dum3 RightShoulder
      LeftShoulder LeftArm
      LeftArm LeftForeArm
      LeftForeArm LeftHand
      LeftHand LeftHand_dum1 LeftHand_dum2
      LeftHand_dum1 LeftHandThumb1
      RightShoulder RightArm
      RightArm RightForeArm
      RightForeArm RightHand
      RightHand RightHand_dum1 RightHand_dum2
      RightHand_dum1 RightHandThumb1
      LeftUpLeg LeftLeg
      LeftLeg LeftFoot
      LeftFoot LeftToeBase
      RightUpLeg RightLeg
      RightLeg RightFoot
      RightFoot RightToeBase
   end

# File created by Blade
# Date/Time:  Thu Jan 15 17:55:09 2015
# Frame Rate: 120.000 fps
#------------------------------------------------------
:FULLY-SPECIFIED
:DEGREES
157
root 5.353252 35.730454 -11.317594 4.231902 -1.728761 1.747794
Spine -4.654338 -13.827596 -3.032707
Head -7.257833 12.239752 16.444539
LeftShoulder -26.106734 1.191047 -0.308617
LeftArm 21.343182 15.715808 -67.524026
LeftForeArm 0.000000 39.256599 -1.117120
LeftHand 2.450563 -0.000000 -5.018898
LeftHandThumb1 -26.253704 33.147579 0.000000
RightShoulder 4.597675 6.117006 -0.950676
RightArm 10.311121 2.167879 76.094150
RightForeArm 0.000000 -50.330694 8.430906
RightHand -2.949673 -0.000000 3.158999
RightHandThumb1 -24.326973 -32.862282 -0.000000
LeftUpLeg 0.690580 12.122437 -1.178845
LeftLeg -0.987816 -0.000000 0.000000
LeftFoot -22.461346 19.492334 -14.820599
LeftToeBase 25.484503 -0.000000 -0.000000
RightUpLeg 2.383683 -14.121152 -1.920972
RightLeg -5.085114 -0.000000 0.000000
RightFoot -20.245069 -24.390968 10.380511
RightToeBase 27.603026 -0.000000 -0.000000
158
root 5.352244 35.730416 -11.339848 4.053590 -1.820257 1.740445
Spine -4.598112 -13.884092 -2.995168
Head -7.172700 12.268509 16.346420
LeftShoulder -25.563863 1.181482 -0.301901
LeftArm 22.954976 19.682522 -67.360357
LeftForeArm -0.000000 39.442134 -0.938773
LeftHand 2.183036 -0.000000 -5.231584
LeftHandThumb1 -26.253704 33.147579 0.000000
RightShoulder 5.413136 6.493908 -0.599531
RightArm 11.213595 -1.009299 76.952282
RightForeArm -0.000000 -50.196730 8.357785
RightHand -3.033973 -0.000000 3.554057
RightHandThumb1 -24.326973 -32.862282 -0.000000
LeftUpLeg 0.834634 12.250734 -1.146641
LeftLeg -0.975091 -0.000000 0.000000
LeftFoot -22.449539 19.497838 -14.790699
LeftToeBase 25.487537 -0.000000 -0.000000
RightUpLeg 2.496556 -14.018391 -1.948408
RightLeg -5.051148 -0.000000 0.000000
RightFoot -20.226604 -24.419499 10.342420
RightToeBase 27.610547 -0.000000 -0.000000
159
root 5.347674 35.730960 -11.357632 3.848499 -1.956499 1.726572
Spine -4.531101 -13.866519 -2.964902
Head -7.082172 12.167586 16.288026
LeftShoulder -24.973859 1.106428 -0.117565
LeftArm 24.660177 22.944244 -67.376782
LeftForeArm 0.000000 40.775398 -0.949765
LeftHand 2.225445 -0.000000 -4.973616
LeftHandThumb1 -26.253704 33.147579 0.000000
RightShoulder 6.286691 6.909979 -0.312941
RightArm 12.195900 -3.757782 77.835076
RightForeArm -0.000000 -50.624124 8.238744
RightHand -3.014485 -0.000000 3.837251
RightHandThumb1 -24.326973 -32.862282 -0.000000
LeftUpLeg 1.021834 12.296683 -1.093287
LeftLeg -0.953000 -0.000000 0.000000
LeftFoot -22.480392 19.576744 -14.807029
LeftToeBase 25.498030 -0.000000 -0.000000
RightUpLeg 2.638081 -13.880138 -1.973526
RightLeg -5.017703 -0.000000 0.000000
RightFoot -20.203869 -24.427972 10.294857
RightToeBase 27.633516 -0.000000 -0.000000
160
root 5.342351 35.732282 -11.377265 3.673807 -2.101608 1.713370
Spine -4.525903 -13.811250 -2.946560
Head -6.930757 12.131105 16.245189
LeftShoulder -24.339151 0.986679 0.297057
LeftArm 26.588581 26.591168 -67.132020
LeftForeArm -0.000000 41.749105 -1.023592
LeftHand 2.445170 -0.000000 -5.361262
LeftHandThumb1 -26.253704 33.147579 0.000000
RightShoulder 7.156249 7.272882 -0.070210
RightArm 13.389789 -6.737486 78.547244
RightForeArm -0.000000 -51.182003 8.100980
RightHand -3.094109 -0.000000 4.165603
RightHandThumb1 -24.326973 -32.862282 -0.000000
LeftUpLeg 1.169477 12.335691 -1.045300
LeftLeg -0.923690 -0.000000 0.000000
LeftFoot -22.492856 19.686275 -14.825745
LeftToeBase 25.448553 -0.000000 -0.000000
RightUpLeg 2.751394 -13.723532 -1.989034
RightLeg -4.996982 -0.000000 0.000000
RightFoot -20.174953 -24.440100 10.277490
RightToeBase 27.626673 -0.000000 -0.000000
161
root 5.341248 35.734131 -11.401477 3.516096 -2.311375 1.684230
Spine -4.537187 -13.723533 -2.868258
Head -6.762803 12.114831 16.122745
LeftShoulder -23.745207 0.915107 0.755743
LeftArm 28.930677 30.220120 -66.497555
LeftForeArm -0.000000 42.601609 -1.071791
LeftHand 2.718935 0.000000 -5.339136
LeftHandThumb1 -26.253704 33.147579 0.000000
RightShoulder 8.119532 7.744634 0.072702
RightArm 14.645976 -9.941298 79.079936
RightForeArm -0.000000 -51.878328 8.025109
RightHand -2.941973 -0.000000 4.484415
RightHandThumb1 -24.326973 -32.862282 -0.000000
LeftUpLeg 1.312925 12.466101 -0.998713
LeftLeg -0.921908 -0.000000 0.000000
LeftFoot -22.506943 19.782537 -14.838675
LeftToeBase 25.432180 -0.000000 -0.000000
RightUpLeg 2.807544 -13.496976 -1.991849
RightLeg -4.932379 -0.000000 0.000000
RightFoot -20.151376 -24.454806 10.275675
RightToeBase 27.638722 -0.000000 -0.000000
162
root 5.337673 35.736709 -11.424146 3.368888 -2.491928 1.655744
Spine -4.589831 -13.620638 -2.785385
Head -6.600670 11.953514 16.004206
LeftShoulder -23.001017 0.829801 1.374737
LeftArm 31.397713 33.371282 -65.733487
LeftForeArm -0.000000 43.364734 -1.124682
LeftHand 3.193161 -0.000000 -5.741183
LeftHandThumb1 -26.253704 33.147579 0.000000
RightShoulder 9.062925 8.203111 0.150718
RightArm 16.116477 -13.340872 79.384548
RightForeArm -0.000000 -52.330654 7.911958
RightHand -2.756198 -0.000000 4.380196
RightHandThumb1 -24.326973 -32.862282 -0.000000
LeftUpLeg 1.440543 12.645379 -0.947016
LeftLeg -0.912370 -0.000000 0.000000
LeftFoot -22.507052 19.790983 -14.827155
LeftToeBase 25.501541 -0.000000 -0.000000
RightUpLeg 2.869405 -13.334397 -1.981916
RightLeg -4.898039 -0.000000 0.000000
RightFoot -20.093058 -24.480934 10.243433
RightToeBase 27.622561 -0.000000 -0.000000
163
root 5.332289 35.740740 -11.443707 3.215139 -2.675969 1.635290
Spine -4.658502 -13.503952 -2.731200
Head -6.362775 11.830599 15.926769
LeftShoulder -22.199892 0.604910 2.180685
LeftArm 33.751728 36.054525 -65.067470
LeftForeArm -0.000000 44.152839 -1.127248
LeftHand 3.822187 -0.000000 -5.296763
LeftHandThumb1 -26.253704 33.147579 0.000000
RightShoulder 10.052100 8.755466 0.214456
RightArm 17.728561 -17.476402 79.180893
RightForeArm -0.000000 -52.413747 7.917779
RightHand -2.586162 -0.000000 4.291503
RightHandThumb1 -24.326973 -32.862282 -0.000000
LeftUpLeg 1.581334 12.685543 -0.899264
LeftLeg -0.895914 -0.000000 0.000000
LeftFoot -22.524466 19.926369 -14.904223
LeftToeBase 25.418289 -0.000000 -0.000000
RightUpLeg 2.944094 -13.178136 -1.987500
RightLeg -4.848617 -0.000000 0.000000
RightFoot -20.059905 -24.409377 10.261631
RightToeBase 27.625782 -0.000000 -0.000000
164
root 5.321042 35.745650 -11.464675 3.090852 -2.925258 1.597072
Spine -4.787689 -13.298185 -2.666347
Head -6.074915 11.709140 15.855127
LeftShoulder -21.308968 0.352698 3.079086
LeftArm 36.081718 38.200849 -64.369633
LeftForeArm -0.000000 44.324651 -0.957689
LeftHand 4.406554 0.000000 -5.476151
LeftHandThumb1 -26.253704 33.147579 0.000000
RightShoulder 11.111377 9.346051 0.249751
RightArm 19.392498 -20.399344 79.164956
RightForeArm 0.000000 -53.354134 7.860388
RightHand -2.457319 -0.000000 4.487566
RightHandThumb1 -24.326973 -32.862282 -0.000000
LeftUpLeg 1.705824 12.879104 -0.828499
LeftLeg -0.899461 -0.000000 0.000000
LeftFoot -22.518007 19.972234 -14.950712
LeftToeBase 25.419854 -0.000000 -0.000000
RightUpLeg 2.973386 -12.886907 -1.954393
RightLeg -4.797742 -0.000000 0.000000
RightFoot -20.029319 -24.425595 10.335805
RightToeBase 27.625747 -0.000000 -0.000000
165
root 5.315796 35.750470 -11.483521 2.985465 -3.078093 1.562630
Spine -4.960914 -13.127851 -2.552409
Head -5.762241 11.476548 15.700031
LeftShoulder -20.368795 0.011569 4.025857
LeftArm 38.361328 40.084896 -63.542790
LeftForeArm 0.000000 44.161113 -0.431813
LeftHand 4.499627 -0.000000 -5.521422
LeftHandThumb1 -26.253704 33.147579 0.000000
RightShoulder 12.126270 10.076447 0.171827
RightArm 21.168504 -23.933930 78.648865
RightForeArm -0.000000 -52.990567 7.983942
RightHand -2.442139 0.000000 4.845380
RightHandThumb1 -24.326973 -32.862282 -0.000000
LeftUpLeg 1.799956 12.901679 -0.773850
LeftLeg -0.891102 -0.000000 0.000000
LeftFoot -22.515273 20.081351 -15.005404
LeftToeBase 25.369169 -0.000000 -0.000000
RightUpLeg 3.014418 -12.715853 -1.932267
RightLeg -4.769229 -0.000000 0.000000
RightFoot -19.983067 -24.407729 10.380962
RightToeBase 27.564563 -0.000000 -0.000000
166
root 5.313031 35.756849 -11.497829 2.824088 -3.229352 1.549364
Spine -5.083769 -12.963172 -2.477624
Head -5.413215 11.320042 15.568711
LeftShoulder -19.485724 -0.359341 4.954140
LeftArm 40.734144 41.484962 -62.617852
LeftForeArm -0.000000 43.953673 0.124713
LeftHand 4.795295 -0.000000 -5.195752
LeftHandThumb1 -26.253704 33.147579 0.000000
RightShoulder 13.236118 10.993579 0.109412
RightArm 22.742377 -26.101764 78.488501
RightForeArm 0.000000 -53.404529 7.964983
RightHand -1.980561 0.000000 4.903513
RightHandThumb1 -24.326973 -32.862282 -0.000000
LeftUpLeg 1.946771 12.929066 -0.732463
LeftLeg -0.865162 -0.000000 0.000000
LeftFoot -22.542562 20.182774 -15.133223
LeftToeBase 25.345503 -0.000000 -0.000000
RightUpLeg 3.120486 -12.587833 -1.946994
RightLeg -4.750973 -0.000000 0.000000
RightFoot -19.897429 -24.403222 10.379944
RightToeBase 27.508411 -0.000000 -0.000000
167
root 5.299232 35.762454 -11.517340 2.731235 -3.481745 1.498299
Spine -5.283738 -12.650497 -2.389865
Head -5.063524 11.110161 15.466304
LeftShoulder -18.438651 -1.059474 6.150363
LeftArm 42.350949 42.289500 -62.498050
LeftForeArm 0.000000 44.618760 0.639676
LeftHand 4.833333 -0.000000 -5.244637
LeftHandThumb1 -26.253704 33.147579 0.000000
RightShoulder 14.329975 12.029489 0.040435
RightArm 24.109267 -26.762780 78.954723
RightForeArm 0.000000 -54.706902 7.697077
RightHand -0.860929 -0.000000 4.613558
RightHandThumb1 -24.326973 -32.862282 -0.000000
LeftUpLeg 2.040636 13.125868 -0.647395
LeftLeg -0.859277 -0.000000 0.000000
LeftFoot -22.535555 20.216557 -15.193281
LeftToeBase 25.299209 -0.000000 -0.000000
RightUpLeg 3.116810 -12.275134 -1.895091
RightLeg -4.682993 -0.000000 0.000000
RightFoot -19.879977 -24.379013 10.499290
RightToeBase 27.469414 -0.000000 -0.000000
168
root 5.300077 35.766560 -11.539433 2.718680 -3.577517 1.501090
Spine -5.566673 -12.504755 -2.251262
Head -4.742065 10.940356 15.240362
LeftShoulder -17.386934 -2.001749 7.434329
LeftArm 43.908124 43.287971 -62.178547
LeftForeArm 0.000000 44.858020 1.360140
LeftHand 4.961783 -0.000000 -5.138829
LeftHandThumb1 -26.253704 33.147579 0.000000
RightShoulder 15.284708 13.041188 -0.214465
RightArm 25.949664 -28.512340 78.673142
RightForeArm -0.000000 -54.599443 7.643852
RightHand -0.852020 -0.000000 4.598152
RightHandThumb1 -24.326973 -32.862282 -0.000000
LeftUpLeg 1.994177 13.079668 -0.662306
LeftLeg -0.790300 -0.000000 0.000000
LeftFoot -22.553070 20.329278 -15.260881
LeftToeBase 25.227300 -0.000000 -0.000000
RightUpLeg 3.057740 -12.174744 -1.892114
RightLeg -4.645767 -0.000000 0.000000
RightFoot -19.831272 -24.403930 10.468037
RightToeBase 27.466546 -0.000000 -0.000000
169
root 5.299948 35.772254 -11.555134 2.610331 -3.670497 1.491497
Spine -5.735780 -12.354430 -2.125618
Head -4.455722 10.798901 15.015008
LeftShoulder -16.487580 -2.780361 8.605027
LeftArm 46.593725 44.637605 -60.493841
LeftForeArm -0.000000 44.379933 2.107111
LeftHand 4.883911 0.000000 -4.967354
LeftHandThumb1 -26.253704 33.147579 0.000000
RightShoulder 16.234311 14.194005 -0.472324
RightArm 27.685309 -29.729034 78.550325
RightForeArm -0.000000 -55.433409 7.610363
RightHand -0.637252 -0.000000 4.345762
RightHandThumb1 -24.326973 -32.862282 -0.000000
LeftUpLeg 2.067851 13.059974 -0.639363
LeftLeg -0.745316 -0.000000 0.000000
LeftFoot -22.574383 20.414681 -15.376647
LeftToeBase 25.187742 -0.000000 -0.000000
RightUpLeg 3.112345 -12.045771 -1.904772
RightLeg -4.599012 -0.000000 0.000000
RightFoot -19.779471 -24.304594 10.701736
RightToeBase 27.086747 -0.000000 -0.000000
